<svg xmlns="http://www.w3.org/2000/svg" xmlns:xlink="http://www.w3.org/1999/xlink" width="890" height="770" viewBox="0 0 890 770"><defs><clipPath id="a"><rect width="890" height="770" fill="#469f9b"/></clipPath><clipPath id="c"><rect width="890" height="770"/></clipPath></defs><g id="b" clip-path="url(#c)"><rect width="890" height="770" fill="#fa7370"/><g clip-path="url(#a)"><rect width="890" height="770" fill="#fa7370"/><g transform="matrix(0.966, -0.259, 0.259, 0.966, 474.024, -39.828)"><g transform="matrix(-0.259, 0.966, -0.966, -0.259, 528.989, -109.542)"><circle cx="120" cy="120" r="120" transform="translate(758.76 -37.607)" fill="#f5d3b0"/><circle cx="120" cy="120" r="120" transform="translate(770.76 -23.607)" fill="#6b91dc"/></g><g transform="translate(-238.578 -119.839) rotate(60)"><circle cx="63.577" cy="63.577" r="63.577" transform="translate(759 -38)" fill="#f5d3b0"/><circle cx="63.577" cy="63.577" r="63.577" transform="translate(765.055 -30.215)" fill="#6b91dc"/></g><g transform="translate(-848.061 594.237)"><circle cx="109.98" cy="109.98" r="109.98" transform="translate(758.891 -38.409)" fill="#f5d3b0"/><circle cx="109.98" cy="109.98" r="109.98" transform="translate(769.449 -24.332)" fill="#6b91dc"/></g></g><g transform="translate(-28.653 -17.032)"><g transform="matrix(-0.259, 0.966, -0.966, -0.259, 528.989, -109.542)"><circle cx="120" cy="120" r="120" transform="translate(758.76 -37.607)" fill="#f5d3b0"/><circle cx="120" cy="120" r="120" transform="translate(770.76 -23.607)" fill="#6b91dc"/></g><g transform="matrix(-0.259, 0.966, -0.966, -0.259, 581.391, -48.597)"><circle cx="73.5" cy="73.5" r="73.5" transform="translate(759 -38)" fill="#f5d3b0"/><circle cx="73.5" cy="73.5" r="73.5" transform="translate(766 -29)" fill="#6b91dc"/></g><g transform="matrix(0.966, 0.259, -0.259, 0.966, -776.721, 384.245)"><circle cx="125" cy="125" r="125" transform="translate(758.891 -38.409)" fill="#f5d3b0"/><circle cx="125" cy="125" r="125" transform="translate(770.891 -22.409)" fill="#6b91dc"/></g></g><path d="M.481,316.564,957.856-158.56v14.578L.481,331.142Z" transform="translate(-12.323 388.683)" fill="#0f111b"/><path d="M5880.19,3704.537l-150.6-78.255" transform="translate(-4972 -3493)" fill="#6890b0"/><path d="M5876.732,3711.192l-150.6-78.255,6.916-13.311,150.6,78.255Z" transform="translate(-4972 -3493)" fill="#6890b0"/><path d="M5306.95,4180.485l83.291-42.81,12.814,5.534-87.368,50.382-11.94-7.572Z" transform="translate(-4990 -3480)" fill="#4f6a9b"/><path d="M5880.19,3704.537l-150.6-78.255" transform="translate(-5511.679 -3218.051)" fill="#6890b0"/><path d="M5876.732,3711.192l-150.6-78.255,6.916-13.311,150.6,78.255Z" transform="translate(-5511.679 -3218.051)" fill="#6890b0"/><path d="M5880.19,3704.537l-150.6-78.255" transform="translate(-5606.679 -3173.481)" fill="#6890b0"/><path d="M5876.732,3711.192l-150.6-78.255,6.916-13.311,150.6,78.255Z" transform="translate(-5606.679 -3173.481)" fill="#6890b0"/><path d="M.481,210.877,957.856-264.246v16.736L.481,227.613Z" transform="translate(-35 312)" fill="#0f111b"/><path d="M.481,187.248,957.856-287.876v40.366L.481,227.613Z" transform="translate(-17.657 455.618)" fill="#0f111b"/><path d="M5824.148,3581.711l-55.507,158.06" transform="translate(-4972 -3493)" fill="#0f111b"/><path d="M5775.718,3742.257l-14.152-4.97,55.507-158.06,14.152,4.97Z" transform="translate(-4972 -3493)" fill="#0f111b"/><path d="M5824.148,3581.711l-55.507,158.06" transform="translate(-5055.795 -3448.43)" fill="#0f111b"/><path d="M5775.718,3742.257l-14.152-4.97,55.507-158.06,14.152,4.97Z" transform="translate(-5055.795 -3448.43)" fill="#0f111b"/><path d="M5824.148,3581.711l-55.507,158.06" transform="translate(-5145.795 -3403.86)" fill="#0f111b"/><path d="M5775.718,3742.257l-14.152-4.97,55.507-158.06,14.152,4.97Z" transform="translate(-5145.795 -3403.86)" fill="#0f111b"/><path d="M5824.148,3581.711l-55.507,158.06" transform="translate(-5234.688 -3354.772)" fill="#0f111b"/><path d="M5775.718,3742.257l-14.152-4.97,55.507-158.06,14.152,4.97Z" transform="translate(-5234.688 -3354.772)" fill="#0f111b"/><path d="M5824.148,3581.711l-55.507,158.06" transform="translate(-5330.893 -3310.202)" fill="#0f111b"/><path d="M5775.718,3742.257l-14.152-4.97,55.507-158.06,14.152,4.97Z" transform="translate(-5330.893 -3310.202)" fill="#0f111b"/><path d="M5824.148,3581.711l-55.507,158.06" transform="translate(-5418.679 -3265.632)" fill="#0f111b"/><path d="M5775.718,3742.257l-14.152-4.97,55.507-158.06,14.152,4.97Z" transform="translate(-5418.679 -3265.632)" fill="#0f111b"/><path d="M5824.148,3581.711l-55.507,158.06" transform="translate(-5511.679 -3218.051)" fill="#0f111b"/><path d="M5775.718,3742.257l-14.152-4.97,55.507-158.06,14.152,4.97Z" transform="translate(-5511.679 -3218.051)" fill="#0f111b"/><path d="M5824.148,3581.711l-55.507,158.06" transform="translate(-5606.679 -3173.481)" fill="#0f111b"/><path d="M5775.718,3742.257l-14.152-4.97,55.507-158.06,14.152,4.97Z" transform="translate(-5606.679 -3173.481)" fill="#0f111b"/><path d="M5824.148,3581.711l-55.507,158.06" transform="translate(-5694.679 -3128.911)" fill="#0f111b"/><path d="M5775.718,3742.257l-14.152-4.97,55.507-158.06,14.152,4.97Z" transform="translate(-5694.679 -3128.911)" fill="#0f111b"/><path d="M5824.148,3581.711l-55.507,158.06" transform="translate(-5787.679 -3085.116)" fill="#0f111b"/><path d="M5775.718,3742.257l-14.152-4.97,55.507-158.06,14.152,4.97Z" transform="translate(-5787.679 -3085.116)" fill="#0f111b"/><path d="M5880.19,3704.537l-150.6-78.255" transform="translate(-4882.032 -3526.685)" fill="#0f111b"/><path d="M5876.732,3711.192l-150.6-78.255,6.916-13.311,150.6,78.255Z" transform="translate(-4882.032 -3526.685)" fill="#0f111b"/><path d="M5880.19,3704.537l-150.6-78.255" transform="translate(-5055.795 -3448.43)" fill="#0f111b"/><path d="M5876.732,3711.192l-150.6-78.255,6.916-13.311,150.6,78.255Z" transform="translate(-5055.795 -3448.43)" fill="#0f111b"/><path d="M5880.19,3704.537l-150.6-78.255" transform="translate(-5145.795 -3403.86)" fill="#0f111b"/><path d="M5876.732,3711.192l-150.6-78.255,6.916-13.311,150.6,78.255Z" transform="translate(-5145.795 -3403.86)" fill="#0f111b"/><path d="M5880.19,3704.537l-150.6-78.255" transform="translate(-5234.688 -3354.772)" fill="#0f111b"/><path d="M5876.732,3711.192l-150.6-78.255,6.916-13.311,150.6,78.255Z" transform="translate(-5234.688 -3354.772)" fill="#0f111b"/><path d="M5880.19,3704.537l-150.6-78.255" transform="translate(-5330.893 -3310.202)" fill="#0f111b"/><path d="M5876.732,3711.192l-150.6-78.255,6.916-13.311,150.6,78.255Z" transform="translate(-5330.893 -3310.202)" fill="#0f111b"/><path d="M5880.19,3704.537l-150.6-78.255" transform="translate(-5418.679 -3265.632)" fill="#0f111b"/><path d="M5876.732,3711.192l-150.6-78.255,6.916-13.311,150.6,78.255Z" transform="translate(-5418.679 -3265.632)" fill="#0f111b"/><path d="M5880.19,3704.537l-150.6-78.255" transform="translate(-5694.679 -3128.911)" fill="#0f111b"/><path d="M5876.732,3711.192l-150.6-78.255,6.916-13.311,150.6,78.255Z" transform="translate(-5694.679 -3128.911)" fill="#0f111b"/><path d="M5880.19,3704.537l-150.6-78.255" transform="translate(-5787.679 -3085.116)" fill="#6890b0"/><path d="M5876.732,3711.192l-150.6-78.255,6.916-13.311,150.6,78.255Z" transform="translate(-5787.679 -3085.116)" fill="#6890b0"/><path d="M957.856,187.248.481-287.876v173.71L957.856,360.957Z" transform="translate(-34.169 559.386)" fill="#1e2132"/><path d="M957.856,332.4.481-142.726v28.559L957.856,360.957Z" transform="translate(-86.169 677.05)" fill="#1e2132"/><path d="M957.856,332.4.481-142.726v28.559L957.856,360.957Z" transform="translate(353.72 79.505)" fill="#1e2132"/><path d="M957.856,187.248.481-287.876v173.71L957.856,360.957Z" transform="translate(-34.169 514.816)" fill="#4f6a9b"/><path d="M957.856,316.564.481-158.56v44.393L957.856,360.957Z" transform="translate(-67.856 668.801)" fill="#4f6a9b"/><path d="M957.856,316.564.481-158.56v44.393L957.856,360.957Z" transform="translate(292.727 32.083)" fill="#4f6a9b"/><path d="M5433.261,4147.217l-100.6,51.281,148.843,73.485,215.851,8.9Z" transform="translate(-5019.437 -3497.877)" fill="#1e2132"/><circle cx="22" cy="22" r="22" transform="translate(154 111)" fill="#ffcfa7"/><path d="M5900.549,4182.817l-922.84-456.852,5.768-11.65,922.84,456.852Z" transform="translate(-4990 -3480)" fill="#f5d3b0"/><path d="M5902.323,4179.232l-922.84-456.851,2.219-4.481,922.84,456.851Z" transform="translate(-5151.013 -3260.708)" fill="#f5d3b0"/><path d="M5902.323,4179.232l-922.84-456.851,2.219-4.481,922.84,456.851Z" transform="translate(-4736.013 -3867.834)" fill="#f5d3b0"/></g></g></svg>