<svg xmlns="http://www.w3.org/2000/svg" xmlns:xlink="http://www.w3.org/1999/xlink" width="890" height="770" viewBox="0 0 890 770"><defs><clipPath id="b"><rect width="890" height="770"/></clipPath></defs><g id="a" clip-path="url(#b)"><rect width="890" height="770" fill="#1c4386"/><rect width="890" height="770" fill="#1c4386"/><path d="M4353.233,3644.036a268.666,268.666,0,0,1-45.627-4.11,356.278,356.278,0,0,1-44.433-10.826,499.817,499.817,0,0,1-79.271-32.825c-10.624-5.444-21.332-11.34-31.828-17.526-8.4-4.948-16.678-10.092-24.612-15.288-13.517-8.852-21.453-14.872-21.532-14.932l1.211-1.592c.078.059,7.977,6.05,21.447,14.87a623.962,623.962,0,0,0,56.26,32.7c42.318,21.68,105.882,47.524,168.384,47.524,62.468,0,123.684-29.278,164.038-53.84a547.366,547.366,0,0,0,53.311-37.058c12.676-9.995,20.035-16.783,20.108-16.851l1.358,1.468c-.073.068-7.472,6.894-20.2,16.928-7.469,5.89-15.29,11.721-23.243,17.331-9.943,7.012-20.124,13.7-30.261,19.868-25.812,15.713-51.5,28.234-76.348,37.216a302.925,302.925,0,0,1-43.481,12.276A232.48,232.48,0,0,1,4353.233,3644.036Z" transform="translate(-4000 -3480)" fill="#050914"/><circle cx="102.704" cy="102.704" r="102.704" transform="translate(-83.745 624.755) rotate(-45)" fill="#2c5fa4"/><circle cx="102.704" cy="102.704" r="102.704" transform="translate(-87.493 634.96) rotate(-45)" fill="#265391"/><circle cx="77.5" cy="77.5" r="77.5" transform="translate(92 700)" fill="#2c5fa4"/><circle cx="55.5" cy="55.5" r="55.5" transform="translate(-32 609)" fill="#2c5fa4"/><circle cx="77.5" cy="77.5" r="77.5" transform="translate(28 608)" fill="#2c5fa4"/><circle cx="77.5" cy="77.5" r="77.5" transform="translate(31 620)" fill="#265391"/><circle cx="77.5" cy="77.5" r="77.5" transform="translate(-73 623)" fill="#265391"/><circle cx="77.5" cy="77.5" r="77.5" transform="translate(109 719)" fill="#265391"/><circle cx="77.5" cy="77.5" r="77.5" transform="translate(-16 723)" fill="#265391"/><path d="M4351.509,3628.356a365.42,365.42,0,0,1-45.772-3.02c-14.338-1.82-29.317-4.5-44.523-7.951a613.1,613.1,0,0,1-79.348-24.1c-24.07-9.049-43.986-18.093-56.455-24.087-13.529-6.5-21.486-10.936-21.565-10.98l2.438-4.365-1.219,2.183,1.219-2.183c.078.043,7.946,4.425,21.367,10.874,12.382,5.95,32.159,14.928,56.058,23.909,42.147,15.838,105.471,34.718,167.8,34.718,62.345,0,123.758-18.891,164.3-34.738,22.974-8.981,41.823-17.956,53.59-23.9,12.728-6.433,20.1-10.786,20.171-10.829l2.548,4.3c-.074.044-7.589,4.481-20.464,10.989-11.864,6-30.867,15.045-54.025,24.1a562.89,562.89,0,0,1-76.922,24.107,443.592,443.592,0,0,1-43.726,7.954A358.262,358.262,0,0,1,4351.509,3628.356Z" transform="translate(-4000 -3480)" fill="#050914"/><rect width="340" height="770" transform="translate(550)" fill="#84aadc"/><rect width="322" height="506" transform="translate(228 264)" fill="#2c5fa4"/><rect width="99" height="99" transform="translate(405 311)" fill="#1c4386"/><path d="M3,3V96H96V3H3M0,0H99V99H0Z" transform="translate(405 311)" fill="#4375ca"/><rect width="99" height="99" transform="translate(405 445)" fill="#1c4386"/><path d="M3,3V96H96V3H3M0,0H99V99H0Z" transform="translate(405 445)" fill="#4375ca"/><rect width="99" height="99" transform="translate(274 445)" fill="#f6c4b7"/><path d="M5,5V94H94V5H5M0,0H99V99H0Z" transform="translate(274 445)" fill="#142f5e"/><rect width="99" height="99" transform="translate(405 579)" fill="#1c4386"/><path d="M3,3V96H96V3H3M0,0H99V99H0Z" transform="translate(405 579)" fill="#4375ca"/><rect width="99" height="99" transform="translate(274 579)" fill="#1c4386"/><path d="M3,3V96H96V3H3M0,0H99V99H0Z" transform="translate(274 579)" fill="#4375ca"/><rect width="99" height="99" transform="translate(405 713)" fill="#1c4386"/><path d="M3,3V96H96V3H3M0,0H99V99H0Z" transform="translate(405 713)" fill="#4375ca"/><rect width="99" height="99" transform="translate(274 713)" fill="#1c4386"/><path d="M3,3V96H96V3H3M0,0H99V99H0Z" transform="translate(274 713)" fill="#4375ca"/><path d="M4740.4,3744l-95.031,99.817v411.456H4740.4Z" transform="translate(-4190.872 -3480)" fill="#081325" opacity="0.15"/><path d="M4300.352,3941.974V4039" transform="translate(-4000 -3495)" fill="#142f5e"/><path d="M4302.852,4039h-5v-97.026h5Z" transform="translate(-4000 -3495)" fill="#142f5e"/><path d="M4302.852,4035.4h-5v-93.428h5Z" transform="translate(-4000 -3361.224)" fill="#4375ca"/><path d="M4302.852,4027.224h-5v-85.25h5Z" transform="translate(-4000 -3224.325)" fill="#4375ca"/><rect width="99" height="99" transform="translate(274 311)" fill="#1c4386"/><path d="M3,3V96H96V3H3M0,0H99V99H0Z" transform="translate(274 311)" fill="#4375ca"/><path d="M4302.852,4039.224h-5v-97.25h5Z" transform="translate(-4000 -3629.224)" fill="#4375ca"/><rect width="107" height="12" transform="translate(270 311)" fill="#142f5e"/><g transform="translate(324 -364)"><rect width="305" height="176" transform="translate(277 326)" fill="#1c4386"/><path d="M5,5V171H300V5H5M0,0H305V176H0Z" transform="translate(277 326)" fill="#aec9ee"/><path d="M4304.352,4114.86h-8V3941.974h8Z" transform="translate(-3932.336 -3612.86)" fill="#aec9ee"/></g><rect width="305" height="176" transform="translate(601 208)" fill="#1c4386"/><path d="M5,5V171H300V5H5M0,0H305V176H0Z" transform="translate(601 208)" fill="#aec9ee"/><path d="M4304.352,4114.86h-8V3941.974h8Z" transform="translate(-3608.336 -3730.86)" fill="#aec9ee"/><rect width="306" height="20" transform="translate(597 208)" fill="#142f5e"/><rect width="305" height="176" transform="translate(601 700)" fill="#1c4386"/><path d="M5,5V171H300V5H5M0,0H305V176H0Z" transform="translate(601 700)" fill="#aec9ee"/><path d="M4304.352,4093.69h-8V3941.974h8Z" transform="translate(-3608.336 -3238.86)" fill="#aec9ee"/><rect width="306" height="20" transform="translate(597 700)" fill="#142f5e"/><rect width="179" height="176" transform="translate(601 454)" fill="#1c4386"/><path d="M5,5V171H174V5H5M0,0H179V176H0Z" transform="translate(601 454)" fill="#aec9ee"/><rect width="179" height="176" transform="translate(823 454)" fill="#1c4386"/><path d="M5,5V171H174V5H5M0,0H179V176H0Z" transform="translate(823 454)" fill="#aec9ee"/><path d="M4304.352,4110.742h-8V3941.974h8Z" transform="translate(-3608.336 -3484.86)" fill="#aec9ee"/><rect width="187" height="20" transform="translate(597 454)" fill="#142f5e"/><rect width="187" height="20" transform="translate(819 454)" fill="#142f5e"/><path d="M4302.852,4039.224h-5v-97.25h5Z" transform="translate(-3869 -3629.224)" fill="#4375ca"/><path d="M4302.852,4039.224h-5v-97.25h5Z" transform="translate(-3869 -3495.224)" fill="#4375ca"/><path d="M4302.852,4035.4h-5v-93.428h5Z" transform="translate(-3869 -3361.224)" fill="#4375ca"/><path d="M4302.852,4027.224h-5v-85.25h5Z" transform="translate(-3869 -3227.224)" fill="#4375ca"/><rect width="107" height="12" transform="translate(401 311)" fill="#142f5e"/><rect width="107" height="12" transform="translate(270 445)" fill="#142f5e"/><path d="M0,0H302V10L0,63.145Z" transform="translate(601 228)" fill="#081325" opacity="0.15"/><path d="M0,0H302V10L0,63.145Z" transform="translate(601 -31.573)" fill="#081325" opacity="0.15"/><path d="M0,0H302V10L0,63.145Z" transform="translate(601 720)" fill="#081325" opacity="0.15"/><path d="M0,0H179V5.927L0,37.427Z" transform="translate(601 474)" fill="#081325" opacity="0.15"/><path d="M0,0H179V5.927L0,37.427Z" transform="translate(823 474)" fill="#081325" opacity="0.15"/><path d="M0-.041,99-.092,88.371-.109,76.8,12.043,0,34.887Z" transform="translate(405 323.092)" fill="#081325" opacity="0.15"/><path d="M0-.041,99-.092,49.494-.222V20.156L0,34.887Z" transform="translate(405 457.109)" fill="#081325" opacity="0.15"/><path d="M0-.041,99-.092,49.494-.222V20.156L0,34.887Z" transform="translate(405 591.222)" fill="#081325" opacity="0.15"/><path d="M0-.041,99-.092,49.494-.222V20.156L0,34.887Z" transform="translate(405 725.222)" fill="#081325" opacity="0.15"/><path d="M0-.041,99-.092V5.439L0,34.887Z" transform="translate(274 323.092)" fill="#081325" opacity="0.15"/><path d="M0-.041,99-.092V5.439L0,34.887Z" transform="translate(274 591.092)" fill="#081325" opacity="0.15"/><path d="M0-.041,99-.092V5.439L0,34.887Z" transform="translate(274 725.092)" fill="#081325" opacity="0.15"/><circle cx="16" cy="16" r="16" transform="translate(57.457 681.287) rotate(30)" fill="#f6c4b7"/><rect width="107" height="12" transform="translate(401 579)" fill="#142f5e"/><rect width="107" height="12" transform="translate(401 713)" fill="#142f5e"/><rect width="107" height="12" transform="translate(270 579)" fill="#142f5e"/><rect width="107" height="12" transform="translate(270 713)" fill="#142f5e"/><rect width="107" height="12" transform="translate(401 445)" fill="#142f5e"/><rect width="331" height="15" transform="translate(219 249)" fill="#050914"/><rect width="18" height="809" transform="translate(95 -19)" fill="#050914"/><path d="M4340.133,3729.794a140.4,140.4,0,0,1-23.066-1.958,164.858,164.858,0,0,1-22.66-5.519,200.427,200.427,0,0,1-22.1-8.552c-7.032-3.2-14.229-6.92-21.392-11.067-24.716-14.31-50.155-34.244-75.611-59.25-9.986-9.809-20-20.434-29.765-31.578-7.81-8.913-15.479-18.177-22.793-27.536-12.465-15.948-19.693-26.809-19.765-26.917l4.166-2.764c.077.116,7.23,10.86,19.594,26.673a613.831,613.831,0,0,0,52.132,58.618c39.419,38.708,99.394,84.848,161.259,84.848,61.94,0,126.212-46.216,169.223-84.986a704.07,704.07,0,0,0,57.508-58.657c13.8-15.805,21.9-26.514,21.983-26.621l3.991,3.012c-.082.108-8.294,10.959-22.208,26.9-8.166,9.354-16.677,18.614-25.3,27.522-10.777,11.138-21.755,21.757-32.631,31.561-27.72,24.987-54.958,44.906-80.958,59.2-7.533,4.143-15.062,7.862-22.378,11.055a219.281,219.281,0,0,1-22.855,8.543,175.252,175.252,0,0,1-23.143,5.514A143.559,143.559,0,0,1,4340.133,3729.794Z" transform="translate(-4486.842 -3480)" fill="#050914"/><path d="M4356.489,3768.031a111.831,111.831,0,0,1-23.02-2.484,142.512,142.512,0,0,1-22.944-7.009,189.874,189.874,0,0,1-22.673-10.872,253.973,253.973,0,0,1-22.211-14.083c-25.833-18.236-52.888-43.654-80.411-75.548-10.807-12.522-21.713-26.086-32.416-40.314-8.562-11.382-17.014-23.212-25.122-35.162-13.807-20.351-21.937-34.184-22.018-34.321l1.726-1.011c.08.137,8.187,13.929,21.964,34.235a839.351,839.351,0,0,0,57.4,75.289c27.415,31.764,54.345,57.068,80.042,75.206,32.032,22.61,62.206,34.074,89.684,34.074s56.806-11.786,87.212-35.031c24.4-18.653,49.521-44.673,74.668-77.34a781.323,781.323,0,0,0,52.031-77.435c12.33-20.885,19.454-35.071,19.524-35.212l1.788.9c-.07.141-7.216,14.371-19.575,35.306-7.256,12.293-14.867,24.462-22.618,36.17-9.69,14.637-19.632,28.59-29.547,41.471-25.256,32.811-50.5,58.961-75.045,77.724a230.085,230.085,0,0,1-21.217,14.491,172.716,172.716,0,0,1-21.91,11.189,131.62,131.62,0,0,1-22.458,7.214A106.452,106.452,0,0,1,4356.489,3768.031Z" transform="translate(-4485.753 -3480)" fill="#050914"/><path d="M0,0H19a2,2,0,0,1,2,2V56a2,2,0,0,1-2,2H0a0,0,0,0,1,0,0V0A0,0,0,0,1,0,0Z" transform="translate(107 121)" fill="#050914"/><path d="M0,0H10a2,2,0,0,1,2,2V12a2,2,0,0,1-2,2H0a0,0,0,0,1,0,0V0A0,0,0,0,1,0,0Z" transform="translate(107 46)" fill="#050914"/><rect width="49" height="31" transform="translate(442 218)" fill="#050914"/><rect width="39" height="24" transform="translate(418 233)" fill="#050914"/><path d="M4699.2,3612.645h-3V3480h3Z" transform="translate(-4000 -3480)" fill="#142f5e"/><path d="M4699.2,3630.645h-3V3480h3Z" transform="translate(-4000 -3252)" fill="#142f5e"/><path d="M4699.2,3630.645h-3V3480h3Z" transform="translate(-4000 -3006)" fill="#142f5e"/><path d="M4699.2,3630.645h-3V3480h3Z" transform="translate(-4000 -2760)" fill="#142f5e"/><path d="M4699.2,3630.645h-3V3480h3Z" transform="translate(-3868 -3006)" fill="#142f5e"/><path d="M4699.2,3612.645h-3V3480h3Z" transform="translate(-4090 -3480)" fill="#142f5e"/><path d="M4699.2,3630.645h-3V3480h3Z" transform="translate(-4090 -3252)" fill="#142f5e"/><path d="M4699.2,3630.645h-3V3480h3Z" transform="translate(-4090 -3006)" fill="#142f5e"/><path d="M4699.2,3630.645h-3V3480h3Z" transform="translate(-4090 -2760)" fill="#142f5e"/><circle cx="7" cy="7" r="7" transform="translate(91.876 667.672) rotate(30)" fill="#f6c4b7"/></g></svg>