<svg xmlns="http://www.w3.org/2000/svg" xmlns:xlink="http://www.w3.org/1999/xlink" width="890" height="770" viewBox="0 0 890 770"><defs><clipPath id="a"><rect width="890" height="770" fill="#469f9b"/></clipPath><clipPath id="c"><rect width="890" height="770"/></clipPath></defs><g id="b" clip-path="url(#c)"><rect width="890" height="770" fill="#469f9b"/><g clip-path="url(#a)"><rect width="890" height="770" fill="#469f9b"/><path d="M181.226.343C513.416.084,601.112,47.708,601.112,106.689c0,34.268,37.95,157.661-41.63,177.619-57.369,14.388,17.094-71.179-227.549-74.02S12.973,321.521-120.59,254.739-150.964.6,181.226.343Z" transform="translate(458.604 -50.696)" fill="#f9e4c7"/><path d="M6017.678,4639.587,5216.091,4874.37l78.188,208.138h723.4Z" transform="translate(-5082.238 -4350)" fill="#f9e4c7"/><path d="M0-31.678,564,46.947V101H0Z" transform="translate(326 667)" fill="#0d1810"/><rect width="362.905" height="281.299" transform="translate(0.251 488.701)" fill="#469f9b"/><rect width="53" height="65" transform="translate(-12 130)" fill="#0d1810"/><rect width="18" height="286" transform="translate(386 484)" fill="#469f9b"/><rect width="9" height="286" transform="translate(395 484)" fill="#0d1810"/><rect width="238" height="254" transform="translate(-11 541)" fill="#f9e4c7"/><path d="M11,11V243H227V11H11M0,0H238V254H0Z" transform="translate(-11 541)" fill="#0d1810"/><rect width="11" height="239" transform="translate(64 547)" fill="#0d1810"/><rect width="11" height="245" transform="translate(292 541)" fill="#0d1810"/><rect width="11" height="81" transform="translate(219 552) rotate(-90)" fill="#0d1810"/><path d="M5286.521,4911.843H5213.56v-3h72.962Z" transform="translate(-4990 -4347.843)" fill="#0d1810"/><path d="M5286.521,4911.843H5213.56v-3h72.962Z" transform="translate(-4990 -4197.843)" fill="#0d1810"/><path d="M5286.521,4911.843H5213.56v-3h72.962Z" transform="translate(-4990 -4297.843)" fill="#0d1810"/><path d="M5286.521,4911.843H5213.56v-3h72.962Z" transform="translate(-4990 -4148.843)" fill="#0d1810"/><path d="M5286.521,4911.843H5213.56v-3h72.962Z" transform="translate(-4990 -4247.843)" fill="#0d1810"/><path d="M5286.521,4911.843H5213.56v-3h72.962Z" transform="translate(-4990 -4322.843)" fill="#0d1810"/><path d="M5286.521,4911.843H5213.56v-3h72.962Z" transform="translate(-4990 -4173.843)" fill="#0d1810"/><path d="M5286.521,4911.843H5213.56v-3h72.962Z" transform="translate(-4990 -4272.843)" fill="#0d1810"/><path d="M5286.521,4911.843H5213.56v-3h72.962Z" transform="translate(-4990 -4222.843)" fill="#0d1810"/><path d="M5286.521,4911.843H5213.56v-3h72.962Z" transform="translate(-4990 -4335.843)" fill="#0d1810"/><path d="M5286.521,4911.843H5213.56v-3h72.962Z" transform="translate(-4990 -4185.843)" fill="#0d1810"/><path d="M5286.521,4911.843H5213.56v-3h72.962Z" transform="translate(-4990 -4285.843)" fill="#0d1810"/><path d="M5286.521,4911.843H5213.56v-3h72.962Z" transform="translate(-4990 -4235.843)" fill="#0d1810"/><path d="M5286.521,4911.843H5213.56v-3h72.962Z" transform="translate(-4990 -4310.843)" fill="#0d1810"/><path d="M5286.521,4911.843H5213.56v-3h72.962Z" transform="translate(-4990 -4160.843)" fill="#0d1810"/><path d="M5286.521,4911.843H5213.56v-3h72.962Z" transform="translate(-4990 -4260.843)" fill="#0d1810"/><path d="M5286.521,4911.843H5213.56v-3h72.962Z" transform="translate(-4990 -4210.843)" fill="#0d1810"/><rect width="29" height="218" transform="translate(187 552)" fill="#9f8869" opacity="0.16"/><path d="M5702.385,4720.133c-69.172,38.227-109.147,122.431,30.158,179.876s435.112,26.854,435.112,26.854l-211.066-284.717S5771.556,4681.906,5702.385,4720.133Z" transform="translate(-5041.193 -4345.06)" fill="#fcfff9"/><path d="M3718.512,5146.29s-168.055-345.009-181.825-398.577,8.438-65.833,46.048-319.488h-11.9s-8.934,78.741-21.444,76.575-39.791-89.508-39.791-89.508l-7.275,9.339s30.742,65.253,29.278,118.258-33.312,97.357-33.312,97.357-11.843,29.874-28.14.455-133.929-245.463-133.929-245.463l-9.883,20.053s64.9,132.046,48.665,126.487-47.1-18.092-74.008-49.713-33.608-76.773-33.608-76.773l-5.91,12.934s16.512,43.645,5.91,46.459-48.323-35.207-48.323-35.207l-10.63,4.341s167.875,122.982,183.244,146.543,228.159,555.929,228.159,555.929Z" transform="translate(-2753.431 -4327.251)" fill="#0d1810"/><path d="M5577.025,4567.229s9.529,4.569,30.152,21.276,20.6,19.159,25.805,21.216c17.283,6.833,11.23-30.008,17.94,4.289s15.657,90.215,41.007,115.564,14.726-19.757,23.113-5.219-3.36,53.412,16.025,101.13,48.843,58.8,48.843,58.8l-26.347,29.816s-92.909-233.881-117.571-276.321S5577.025,4567.229,5577.025,4567.229Z" transform="translate(-4990 -4350)" fill="#fbb249"/><path d="M130.546,2.4c379.771-.23,729.436,39.376,729.436,91.828,0,30.475,43.386,140.208-47.592,157.956-65.587,12.8-38.538-77.565-321.233-78.343S82.6,233.567-62.091,186.215-249.225,2.627,130.546,2.4Z" transform="translate(256.141 -75.564)" fill="#fbb249"/><path d="M130.546,2.4c379.771-.23,729.436,39.376,729.436,91.828,0,30.475,43.386,140.208-47.592,157.956-65.587,12.8-38.538-77.565-321.233-78.343S82.6,233.567-62.091,186.215-249.225,2.627,130.546,2.4Z" transform="translate(393.603 -142.978)" fill="#469f9b"/><g transform="matrix(0.966, 0.259, -0.259, 0.966, 689.335, 314.946)"><circle cx="143.11" cy="143.11" r="143.11" transform="translate(282.168 404.775) rotate(-135)" fill="#fefefb"/><circle cx="143.11" cy="143.11" r="143.11" transform="translate(287.39 418.996) rotate(-135)" fill="#f9e4c7"/><ellipse cx="107.99" cy="107.99" rx="107.99" ry="107.99" transform="translate(0.696 311.006)" fill="#fefefb"/><ellipse cx="77.335" cy="77.335" rx="77.335" ry="77.335" transform="translate(257.783 180.434)" fill="#fefefb"/><ellipse cx="99.77" cy="99.77" rx="99.77" ry="99.77" transform="translate(-92.123 431.729)" fill="#fefefb"/><ellipse cx="107.99" cy="107.99" rx="107.99" ry="107.99" transform="translate(107.99 180.435)" fill="#fefefb"/><ellipse cx="107.99" cy="107.99" rx="107.99" ry="107.99" transform="translate(108.687 195.762)" fill="#f9e4c7"/><ellipse cx="107.99" cy="107.99" rx="107.99" ry="107.99" transform="translate(253.603 199.942)" fill="#f9e4c7"/><ellipse cx="139.318" cy="139.318" rx="139.318" ry="139.318" transform="translate(-117.722 441.292)" fill="#f9e4c7"/><ellipse cx="107.99" cy="107.99" rx="107.99" ry="107.99" transform="translate(0 333.711)" fill="#f9e4c7"/><ellipse cx="107.99" cy="107.99" rx="107.99" ry="107.99" transform="translate(174.178 339.284)" fill="#f9e4c7"/></g><circle cx="28" cy="28" r="28" transform="translate(644 557)" fill="#ee645f"/><circle cx="9" cy="9" r="9" transform="translate(635 520)" fill="#ee645f"/><circle cx="9" cy="9" r="9" transform="translate(808 176)" fill="#ee645f"/><circle cx="7" cy="7" r="7" transform="translate(518 181)" fill="#ee645f"/><path d="M0,0H251.536L423.775,284.482v14.386L0,299.166Z" transform="translate(0.153 189.857)" fill="#0d1810"/></g></g></svg>