<svg xmlns="http://www.w3.org/2000/svg" xmlns:xlink="http://www.w3.org/1999/xlink" width="890" height="770" viewBox="0 0 890 770"><defs><clipPath id="a"><rect width="890" height="770" fill="#fff"/></clipPath><clipPath id="c"><rect width="890" height="770"/></clipPath></defs><g id="b" clip-path="url(#c)"><rect width="890" height="770" fill="#4678ad"/><g clip-path="url(#a)"><rect width="890" height="770" fill="#4678ad"/><path d="M2909.781,7435.221l532.423,321.41v304.625H2909.781Z" transform="translate(-3010 -7234)" fill="#ececec"/><path d="M3222.016,7623.424s56.9,71.958-9.787,107.54-249.089,0-249.089,0l14.827,318.747h448.554l-27.72-326.336Z" transform="translate(-3010 -7234)" fill="#a8c0d9"/><path d="M339.225,86.806c400.809-.312,428.027-31.69,428.027,39.475,0,41.347,45.789,190.229-50.229,214.309-69.22,17.36,20.625-85.882-274.554-89.31S108.651,413.026-17.975,358.683-61.585,87.119,339.225,86.806Z" transform="translate(288.812 -95.52)" fill="#7fb6f0" opacity="0.3"/><path d="M3473.3,4699.519s-22.841-16.949-32.585-54.856,5.971-46.585,32.585-226.082h-8.423s-6.322,55.72-15.175,54.187-28.157-63.339-28.157-63.339l-3.858,9.152s20.464,43.632,19.428,81.141-23.573,68.894-23.573,68.894-8.38,21.14-19.913.322-94.773-173.7-94.773-173.7l-6.994,14.19s45.923,93.441,34.437,89.507a117.164,117.164,0,0,1-52.371-35.179c-19.038-22.377-23.782-54.328-23.782-54.328l-4.182,9.152s11.685,30.885,4.182,32.876-34.2-24.914-34.2-24.914l-7.522,3.072s118.8,87.026,129.67,103.7,65.373,166.2,65.373,166.2Z" transform="translate(-2652.985 -4299.553)" fill="#04142d"/><path d="M54.414,102.776,126.006,5.765,235.778,0V316.5H54.414Z" transform="translate(-96.968 618)" fill="#ececec"/><path d="M3660.4,7436.7a142.1,142.1,0,0,1,41.505,37.851c18.467,25.275,20.153,48.165,32.427,60.745s7.692-16.9,11.613-11.844c1.439,1.855,3.742,7.466,11.132,18.385s22.5,25.587,22.5,25.587l-48.085-11.911s-17.513-46.012-35.269-76.341S3660.4,7436.7,3660.4,7436.7Z" transform="translate(-3010 -7234)" fill="#578bc2"/><path d="M56.086,0H68.131L-10.687,103.952-20,116.241H-32.048Z" transform="translate(-30.791 618)" fill="#04142d"/><path d="M0,0H157.785l88.135,116.241H88.135Z" transform="translate(25.313 618)" fill="#04142d"/><path d="M54.414,170.59,173.245,9.568,355.446,0V446.654H54.414Z" transform="translate(82.389 491.121)" fill="#ececec"/><path d="M114.239,0h19.991L3.408,172.541l-15.465,20.4H-32.048Z" transform="translate(135.181 491.121)" fill="#04142d"/><path d="M0,0H257.138L403.426,192.939H146.288Z" transform="translate(249.45 491.121)" fill="#04142d"/><rect width="44" height="97" transform="translate(388 673)" fill="#04142d"/><rect width="35" height="36" transform="translate(409 585)" fill="#04142d"/><path d="M54.414,273.474l190.5-258.135L537,0V636.135L48.79,632.925Z" transform="translate(379 312)" fill="#ececec"/><rect width="52" height="152" transform="translate(838 618)" fill="#04142d"/><path d="M202.466,0h32.048L24.793,276.6,0,309.3H-32.048Z" transform="translate(411.485 312)" fill="#04142d"/><path d="M0,0H345L579.515,309.3h-345Z" transform="translate(614 312)" fill="#04142d"/><path d="M3872.076,7709.1h-18.638l-229.593-297.276L3401.968,7701v-16.163l221.877-293.085,233.982,299.135,6.367,8.212Z" transform="translate(-3010 -7080)" fill="#578bc2"/><path d="M3696.361,7592.7h-11.806L3537.75,7404.353,3397.2,7585.865v-8.791l140.547-185.322Z" transform="translate(-3287.589 -6901.806)" fill="#578bc2"/><rect width="24" height="42" transform="translate(113 734)" fill="#04142d"/><path d="M8.7,10.009h21.01l.516,88.117L8.7,72.1Z" transform="translate(832 257.001)" fill="#578bc2"/><rect width="28" height="74" transform="translate(862 267)" fill="#04142d"/><g transform="translate(-412.913 199.651)"><path d="M8.7,10.009H20.274V56.27L8.7,44.2Z" transform="translate(832 256.997)" fill="#578bc2"/><rect width="15.578" height="40.754" transform="translate(852.274 267)" fill="#04142d"/></g><g transform="translate(-717.467 334)"><path d="M8.7,10.009h7.223V39.124L8.7,31.353Z" transform="translate(832 256.994)" fill="#578bc2"/><rect width="9.725" height="25.44" transform="translate(847.926 267)" fill="#04142d"/></g><path d="M188.029.343c285.722-.271,361.152,49.5,361.152,111.132,0,35.81,32.641,164.757-35.806,185.613-49.344,15.035-28.994-91.146-241.681-92.061s-400.978,165.558-473.65,59.146S-97.693.614,188.029.343Z" transform="translate(404.562 -89.655)" fill="#122333"/><rect width="47" height="14" transform="translate(846 615)" fill="#578bc2"/><rect width="12" height="9" transform="translate(397 682)" fill="#578bc2"/><rect width="24" height="9" transform="translate(408 682)" fill="#4678ad"/><rect width="21" height="5" transform="translate(116 734)" fill="#578bc2"/><circle cx="125" cy="125" r="125" transform="translate(563 651)" fill="#4577af"/><circle cx="92" cy="92" r="92" transform="translate(663 615)" fill="#f1c5c5"/><circle cx="91" cy="91" r="91" transform="translate(755 560)" fill="#4577af"/><circle cx="49" cy="49" r="49" transform="translate(825 536)" fill="#4577af"/><path d="M3578.459,7512.752h-7.274l-90.55-113.454-86.593,108.694h-5.074l91.667-116.241Z" transform="translate(-3455.223 -6773.752)" fill="#578bc2"/><circle cx="124.5" cy="124.5" r="124.5" transform="translate(700 705)" fill="#ececec"/><circle cx="11" cy="11" r="11" transform="translate(661 571)" fill="#f25a34"/><circle cx="5" cy="5" r="5" transform="translate(683 542)" fill="#f25a34"/><circle cx="50" cy="50" r="50" transform="translate(529 705)" fill="#578bc2"/><circle cx="21" cy="21" r="21" transform="translate(563 684)" fill="#578bc2"/><rect width="14" height="5" transform="translate(123 734)" fill="#4678ad"/><path d="M2453.229,4942.349l-.906,56.757,213.433-275.972-23.323-30.139Z" transform="translate(-2020 -4350)" fill="#4577af" opacity="0.22"/><path d="M2452.323,4860.31v37.273l134.306-173.926-15.588-20.144Z" transform="translate(-2315.52 -4194.289)" fill="#4577af" opacity="0.22"/><path d="M2452.323,4809.84v25.276l91.3-118.023-10.8-13.579Z" transform="translate(-2504.182 -4074.048)" fill="#4577af" opacity="0.22"/></g></g></svg>