<svg xmlns="http://www.w3.org/2000/svg" width="120.6" height="50.4" viewBox="0 0 120.6 50.4"><path d="M2.952-50.4H23.9v7.2H10.872v14.04H21.1v7.2H10.872V0H2.952Zm26.568,0h7.92V0H29.52Zm15.624,0h21.6v7.2H53.064v13.32H77.095v7.2H53.064V-7.2h13.68V0h-21.6Zm27.936,0H81V-7.2H94.032V0H73.08Zm26.568,0h12.1q5.9,0,8.856,3.168t2.952,9.288v25.488q0,6.12-2.952,9.288T111.744,0h-12.1ZM111.6-7.2a3.826,3.826,0,0,0,2.988-1.152,5.5,5.5,0,0,0,1.044-3.744V-38.3a5.5,5.5,0,0,0-1.044-3.744A3.826,3.826,0,0,0,111.6-43.2h-4.032v36Z" transform="translate(-2.952 50.4)" fill="#0b1224"/></svg>