<svg xmlns="http://www.w3.org/2000/svg" xmlns:xlink="http://www.w3.org/1999/xlink" width="1344" height="111" viewBox="0 0 1344 111"><defs><clipPath id="a"><rect width="1344" height="111" transform="translate(48 151)" fill="#fff"/></clipPath></defs><g transform="translate(-48 -151)" clip-path="url(#a)"><path d="M12.261.732A50.784,50.784,0,0,1,2.928,0V-18.3a27.214,27.214,0,0,0,6.588.732q6.039,0,8.967-3.02t2.928-9.241V-128.1h20.13v97.722q0,15.738-7.229,23.424T12.261.732Zm73.017,1.1q-14.64,0-22.326-8.327T55.266-30.378V-128.1H75.4v99.186q0,6.588,2.654,9.516t7.594,2.928q4.941,0,7.595-2.928t2.653-9.516V-128.1h19.4v97.722q0,15.555-7.686,23.882T85.278,1.83ZM129.564-128.1h20.13V-18.3h33.123V0H129.564Zm62.952,0h20.13V0h-20.13Zm50.691,0h27.267L291.336,0h-20.13l-3.66-25.437v.366H244.671L241.011,0H222.345Zm21.96,85.644L256.2-105.774h-.366L247.05-42.456ZM301.035-128.1h25.254L345.87-51.423h.366V-128.1H364.17V0H343.491L319.335-93.513h-.366V0H301.035Zm107.421,0h20.13v53.985l25.62-53.985h20.13L450.363-81.069,474.7,0H453.657L436.638-57.1l-8.052,16.287V0h-20.13Zm75.762,0h54.9v18.3h-34.77v33.855h27.633v18.3H504.348V-18.3h34.77V0h-54.9Zm66.429,0H575.9l19.581,76.677h.366V-128.1h17.934V0H593.1L568.947-93.513h-.366V0H550.647Zm78.141,0h25.254l19.581,76.677h.366V-128.1h17.934V0H671.244L647.088-93.513h-.366V0H628.788Zm78.141,0h54.9v18.3h-34.77v33.855h27.633v18.3H727.059V-18.3h34.77V0h-54.9Zm66.429,0H804.1q15.006,0,22.509,8.052t7.5,23.607v64.782q0,15.555-7.5,23.607T804.1,0H773.358ZM803.736-18.3q4.941,0,7.595-2.928t2.654-9.516V-97.356q0-6.588-2.654-9.516t-7.595-2.928H793.488v91.5Zm59.109-36.234L838.506-128.1h21.411l13.725,47.031h.366L887.733-128.1h19.581L882.975-54.534V0h-20.13Zm75.4-17.751h91.5v16.47h-91.5Zm127.917,58.377q0-13.725,4.392-23.515t15.738-21.686q11.163-11.9,15.464-20.313a38.131,38.131,0,0,0,4.3-17.568q0-8.235-2.654-11.438t-7.777-3.2q-10.431,0-10.431,12.627v13.725h-19.032V-97.722q0-15.555,7.686-23.882t22.326-8.326q14.64,0,22.326,8.326t7.686,23.882a50.6,50.6,0,0,1-5.582,22.875q-5.581,11.163-19.307,25.62-8.967,9.516-12.078,15.464a27.043,27.043,0,0,0-3.111,12.719V-18.3h38.247V0h-58.194ZM1168.821,1.83q-14.823,0-22.692-8.418t-7.869-23.79V-97.722q0-15.372,7.869-23.79t22.692-8.418q14.823,0,22.692,8.418t7.869,23.79v67.344q0,15.372-7.869,23.79T1168.821,1.83Zm0-18.3q10.431,0,10.431-12.627V-99q0-12.627-10.431-12.627T1158.39-99V-29.1Q1158.39-16.47,1168.821-16.47Zm43.737,2.562q0-13.725,4.392-23.515t15.738-21.686q11.163-11.9,15.464-20.313a38.131,38.131,0,0,0,4.3-17.568q0-8.235-2.654-11.438t-7.777-3.2q-10.431,0-10.431,12.627v13.725h-19.032V-97.722q0-15.555,7.686-23.882t22.326-8.326q14.64,0,22.326,8.326t7.686,23.882A50.6,50.6,0,0,1,1267-74.847q-5.581,11.163-19.307,25.62-8.967,9.516-12.078,15.464a27.043,27.043,0,0,0-3.111,12.719V-18.3h38.247V0h-58.194ZM1314.672,1.83q-14.823,0-22.417-8.235t-7.595-23.607V-40.443h19.032V-29.1q0,12.627,10.431,12.627,5.124,0,7.778-3.2t2.653-11.255V-41.358q0-8.784-3.111-12.536t-10.065-3.751h-6.771v-18.3h7.32q6.039,0,9.058-3.111T1324-89.487V-98.82q0-6.588-2.745-9.7a9.278,9.278,0,0,0-7.32-3.111q-9.7,0-9.7,11.9v8.418h-19.032v-6.771q0-15.372,7.594-23.607t21.869-8.235q14.457,0,21.96,8.144t7.5,23.516V-93.7q0,10.431-3.477,16.745a19.726,19.726,0,0,1-10.8,9.058v.366a20.169,20.169,0,0,1,11.346,9.516q3.477,6.588,3.477,16.836v11.346q0,15.372-7.594,23.516T1314.672,1.83Z" transform="translate(48 282)" fill="#0b1224"/></g></svg>