<svg xmlns="http://www.w3.org/2000/svg" xmlns:xlink="http://www.w3.org/1999/xlink" width="890" height="770" viewBox="0 0 890 770"><defs><clipPath id="a"><rect width="890" height="770" fill="#469f9b"/></clipPath><clipPath id="c"><rect width="890" height="770"/></clipPath></defs><g id="b" clip-path="url(#c)"><rect width="890" height="770" fill="#2790c0"/><g clip-path="url(#a)"><rect width="890" height="770" fill="#2790c0"/><path d="M262.326.343C-69.864.084-157.56,47.707-157.56,106.689c0,34.268-37.95,157.661,41.63,177.619,57.369,14.388-17.094-71.179,227.549-74.02S509.548,312.8,582.628,228.379,594.516.6,262.326.343Z" transform="translate(63.89 -100.342)" fill="#46a0c9"/><path d="M3472,4720l440.468-321.9v661.974Z" transform="translate(-3010 -4350)" fill="#fffcf5"/><path d="M3907.125,4400.868s-322.966,222.095-282.2,347.2,282.2,85.758,282.2,85.758v166.108L3333.6,4823.988Z" transform="translate(-3010 -4350)" fill="#2790c0" opacity="0.29"/><path d="M3902.415,4947.231,3303.027,4512.31l-319.8,177.258v451.368h933.8Z" transform="translate(-3010 -4279)" fill="#122333"/><path d="M3757.4,4915.691h153.938v122.665Z" transform="translate(-3010 -4350)" fill="#122333"/><path d="M-2702.467-4273.848-3010-4097.668V-4350h307.958v.315l602.689,442.906v56.228Z" transform="translate(2997.986 4580.441)" fill="#122333"/><path d="M3305.738,4645.538v-40.666L3902.2,5038.04v39.675Z" transform="translate(-3010 -4350)" fill="#2790c0"/><path d="M2990.075,4671.625l94.425-38.02v-136.6h-94.425Z" transform="translate(-3032.5 -4311.416)" fill="#122333"/><path d="M3306,4604.964l-307.812,171.422v41.422L3306,4645.632Z" transform="translate(-3010 -4350)" fill="#2483b0"/><path d="M386.653,2.4c-284.02-.172-545.524,29.448-545.524,68.675,0,22.791-32.447,104.857,35.593,118.131,49.05,9.569,28.821-58.009,240.241-58.591s305.549,44.671,413.758,9.258S670.672,2.568,386.653,2.4Z" transform="translate(85.823 -63.687)" fill="#122333"/><circle cx="113" cy="113" r="113" transform="translate(251 688)" fill="#376c8c"/><circle cx="48" cy="48" r="48" transform="translate(296 640)" fill="#fffcf5"/><circle cx="144.5" cy="144.5" r="144.5" transform="translate(-112 544)" fill="#fffcf5"/><circle cx="7" cy="7" r="7" transform="translate(64 290)" fill="#f10513"/><circle cx="144.5" cy="144.5" r="144.5" transform="translate(52 566)" fill="#2790c0"/><circle cx="96.5" cy="96.5" r="96.5" transform="translate(825 662)" fill="#fffcf5"/><circle cx="35.5" cy="35.5" r="35.5" transform="translate(101 531)" fill="#46a0c9"/><circle cx="65.5" cy="65.5" r="65.5" transform="translate(-65 500)" fill="#fffcf5"/><circle cx="18.5" cy="18.5" r="18.5" transform="translate(427 596)" fill="#f10513"/><path d="M3208.431,4600.31s15.394-11.423,21.961-36.97-4.024-31.4-21.961-152.37h5.677s4.26,37.553,10.227,36.52,18.977-42.688,18.977-42.688l2.6,6.168s-13.792,29.406-13.093,54.686,15.887,46.431,15.887,46.431,5.648,14.248,13.42.217S3326,4395.238,3326,4395.238l4.713,9.564s-30.95,62.975-23.209,60.324a78.963,78.963,0,0,0,35.3-23.709c12.831-15.081,16.029-36.614,16.029-36.614l2.818,6.168s-7.875,20.815-2.818,22.157,29.481-21.042,29.481-21.042l5.07,2.07s-87.078,61.911-94.407,73.147-43.478,113.007-43.478,113.007Z" transform="translate(-3091.625 -4345.345)" fill="#122333"/><path d="M3166.64,4580.441s-1.385-25.116,3.088-30.547,1.271,23.3,12.878,8.823,33.55-66.723,33.55-66.723l-33.55,88.447Z" transform="translate(-3010 -4350)" fill="#46a0c9"/></g></g></svg>