<svg xmlns="http://www.w3.org/2000/svg" xmlns:xlink="http://www.w3.org/1999/xlink" width="890" height="770" viewBox="0 0 890 770"><defs><clipPath id="a"><rect width="890" height="770" fill="#469f9b"/></clipPath><clipPath id="c"><rect width="890" height="770"/></clipPath></defs><g id="b" clip-path="url(#c)"><rect width="890" height="770" fill="#7d93de"/><g clip-path="url(#a)"><rect width="890" height="770" fill="#7d93de"/><rect width="10" height="293" transform="translate(238 104)" fill="#060c1d"/><path d="M3287.539,3674.966c-31.415,0-65.536-.688-101.413-2.046-28.7-1.086-58.582-2.6-88.817-4.5-51.481-3.237-86.6-6.516-86.948-6.549l.28-2.987c.348.033,35.43,3.309,86.869,6.542,30.209,1.9,60.065,3.412,88.738,4.5,35.837,1.356,69.917,2.044,101.292,2.044s65.27-.688,100.745-2.044c28.383-1.085,57.834-2.6,87.535-4.5,50.574-3.233,84.781-6.509,85.12-6.542l.288,2.986c-.34.033-34.584,3.312-85.2,6.549-29.728,1.9-59.207,3.416-87.617,4.5C3352.891,3674.278,3318.954,3674.966,3287.539,3674.966Z" transform="translate(-3010 -3472)" fill="#060c1d"/><path d="M3285.594,3681.638c-31.406,0-65.416-1.092-101.083-3.245-28.532-1.722-58.184-4.124-88.131-7.138-50.99-5.132-85.61-10.332-85.954-10.384l.149-.989c.344.052,34.945,5.249,85.912,10.378,29.933,3.013,59.57,5.413,88.089,7.135,35.646,2.152,69.633,3.243,101.018,3.243s65.393-1.091,101.08-3.243c28.551-1.722,58.234-4.122,88.225-7.135,51.065-5.13,85.765-10.326,86.11-10.378l.149.989c-.345.052-35.064,5.252-86.152,10.384-30,3.014-59.7,5.416-88.267,7.138C3351.03,3680.546,3317,3681.638,3285.594,3681.638Z" transform="translate(-3010 -3459.876)" fill="#060c1d"/><path d="M3273.5,3693.362a788.064,788.064,0,0,1-96.218-6.074c-28.535-3.523-57.406-8.567-85.812-14.992-25.273-5.716-45.491-11.49-58-15.327-13.557-4.158-21.239-7-21.315-7.03l.174-.469c.076.028,7.748,2.869,21.295,7.023,12.5,3.835,32.709,9.6,57.967,15.317,42.963,9.717,108.785,21.051,181.987,21.051q4.21,0,8.447-.051c76.581-.922,148.776-11.844,195.855-20.844,26.656-5.1,48.258-10.128,61.686-13.453,14.55-3.6,22.9-6.03,22.985-6.054l.14.48c-.083.024-8.442,2.454-23,6.058-13.434,3.326-35.045,8.361-61.712,13.459-29.972,5.73-60.092,10.371-89.521,13.793a1034.406,1034.406,0,0,1-106.429,7.061Q3277.777,3693.362,3273.5,3693.362Z" transform="translate(-3010 -3462.876)" fill="#060c1d"/><rect width="890" height="178" transform="translate(0 592)" fill="#7d93de"/><rect width="59" height="56" transform="translate(167 365)" fill="#060c1d"/><rect width="59" height="56" transform="translate(213 385)" fill="#060c1d"/><rect width="59" height="56" transform="translate(129 379)" fill="#060c1d"/><rect width="59" height="56" transform="translate(74 344)" fill="#060c1d"/><rect width="25" height="56" transform="translate(65 372)" fill="#060c1d"/><rect width="25" height="56" transform="translate(30 382)" fill="#060c1d"/><rect width="25" height="56" transform="translate(49 386)" fill="#060c1d"/><rect width="46" height="87" transform="translate(242 370)" fill="#060c1d"/><rect width="15" height="28" transform="translate(265 359)" fill="#060c1d"/><path d="M262.326.343C-69.864.084-157.56,47.707-157.56,106.689c0,34.268-37.95,157.661,41.63,177.619,57.369,14.388,30.332-73.271,227.549-74.02S479.261,359.734,586.211,232.7,594.516.6,262.326.343Z" transform="translate(32.206 -76.161)" fill="#94a8ee"/><path d="M3134.162,3565.484l-208.115,457.652,62.619,56.794,159.416-514.446Z" transform="translate(-3010 -3490.769)" fill="#060c1d"/><path d="M3344,3063h-23.331l202.177-136.865h133.321V3063Z" transform="translate(-3097.083 -2663)" fill="#060c1d"/><path d="M3455,3752.073h99.016v67.644Z" transform="translate(-3010 -3480)" fill="#060c1d"/><path d="M3553.884,3805.061l-84.429-54.913,1.09-1.677,84.429,54.913Z" transform="translate(-3010 -3480)" fill="#060c1d"/><path d="M3553.884,3805.061l-84.429-54.913,1.09-1.677,84.429,54.913Z" transform="translate(-2988 -3480)" fill="#060c1d"/><path d="M3553.884,3805.061l-84.429-54.913,1.09-1.677,84.429,54.913Z" transform="translate(-2966 -3480)" fill="#060c1d"/><path d="M3553.884,3805.061l-84.429-54.913,1.09-1.677,84.429,54.913Z" transform="translate(-2945.786 -3480)" fill="#060c1d"/><path d="M180,0,360,121H0Z" transform="translate(246.917 279)" fill="#94a8ee"/><rect width="890" height="178" transform="translate(0 414)" fill="#e6b4ce"/><path d="M0,0H348V770L.326,592.019Z" transform="translate(542)" fill="#060c1d"/><path d="M3551.947,3894h-113l-205.364,177.967L3552,4260.9h371.71l-371.763-188.937Z" transform="translate(-3010 -3480)" fill="#0b0f3c" opacity="0.1"/><path d="M0,0H281V492.315L0,414H0Z" transform="translate(609 -83.818)" fill="#94a8ee"/><path d="M3436.917,3759,3252.2,3883h15.065l176.641-119.631Z" transform="translate(-3010 -3480)" fill="#7d93de"/><path d="M3410.881,3786.156l141.023,63.41v-13.535l-107.911-72.512Z" transform="translate(-3010 -3480)" fill="#060c1d" opacity="0.1"/><path d="M3053.555,3856.57s38.23-143.969,80.867-186.922,112.15-85.314,112.15-85.314h-9.28s-68.748,41.49-97.25,54.084-1.093-43.708-19.693,0S3053.555,3856.57,3053.555,3856.57Z" transform="translate(-3007.274 -3490.365)" fill="#060c1d"/><path d="M172.25.343C-90.179.17-159.459,31.844-159.459,71.071c0,22.791-29.98,104.857,32.887,118.131,45.322,9.569,66.177-58.092,221.978-58.591s248.221,108.756,332.712,24.265S434.679.515,172.25.343Z" transform="translate(33.805 -52.01)" fill="#060c1d"/><path d="M3090.824,3678.99s-40.428,57.042-48.588,14.364,0-123.662,0-123.662l-23.572,7.613s-2.267,76.611,0,139.622,0,116.687,0,116.687l49.814-91.445Z" transform="translate(-3022.341 -3479.66)" fill="#060c1d"/><path d="M3202.681,3604.469s-15.219,7.51-16.693,3.438,16.693-30.484,16.693-30.484l-7.06-1.957s-12.076,26.732-25.974,40.19-35.038,24.957-35.038,24.957Z" transform="translate(-3010 -3480)" fill="#060c1d"/><path d="M0,0,47-38.929V82H0Z" transform="translate(112 318)" fill="#060c1d"/><rect width="542" height="14" transform="translate(0 400)" fill="#060c1d"/><circle cx="29.5" cy="29.5" r="29.5" transform="translate(-29 171)" fill="#e6b4ce"/><circle cx="120.5" cy="120.5" r="120.5" transform="translate(-71 630)" fill="#060c1d"/><circle cx="82.5" cy="82.5" r="82.5" transform="translate(92 636)" fill="#060c1d"/><circle cx="20.5" cy="20.5" r="20.5" transform="translate(107 630)" fill="#e6b4ce"/><circle cx="20.5" cy="20.5" r="20.5" transform="translate(764 518)" fill="#e6b4ce"/><circle cx="12.5" cy="12.5" r="12.5" transform="translate(288 698)" fill="#060c1d"/><circle cx="11.5" cy="11.5" r="11.5" transform="translate(174 84)" fill="#e6b4ce"/><circle cx="26.5" cy="26.5" r="26.5" transform="translate(180 43)" fill="#7d93de"/><path d="M3619.013,2940.19V2598.9h30.859v349.359Z" transform="translate(-3010 -2610)" fill="#8297de"/><rect width="548" height="11" transform="translate(-6 581)" fill="#cfa3bc"/><rect width="548" height="11" transform="translate(-6 592)" fill="#7185cd"/><rect width="10" height="15" transform="translate(117 302)" fill="#060c1d"/><path d="M0,0,29.777-4.7,34,0V27H0Z" transform="translate(514 245)" fill="#060c1d"/><path d="M3275.795,3691.373a2,2,0,0,1-.59-.089l-46.849-14.451a2,2,0,0,1,1.179-3.822l46.849,14.451a2,2,0,0,1-.589,3.912Z" transform="translate(-3010 -3480)" fill="#060c1d"/><path d="M3254.7,3684.914a1,1,0,0,1-.279-.04l-34.389-9.953a1,1,0,1,1,.556-1.921l34.389,9.953a1,1,0,0,1-.278,1.961Z" transform="translate(-2998.207 -3453.66)" fill="#060c1d"/><circle cx="57" cy="57" r="57" transform="translate(-46 559)" fill="#7185cd"/><circle cx="32" cy="32" r="32" transform="translate(732 609)" fill="#7185cd"/><circle cx="69" cy="69" r="69" transform="translate(705 673)" fill="#060c1d"/><circle cx="107.5" cy="107.5" r="107.5" transform="translate(750 591)" fill="#e6b4ce"/><circle cx="57" cy="57" r="57" transform="translate(194 740)" fill="#060c1d"/></g></g></svg>