<svg xmlns="http://www.w3.org/2000/svg" width="16" height="12.864" viewBox="0 0 16 12.864"><path d="M73.654-795.267a1.719,1.719,0,0,1-1.262-.522,1.719,1.719,0,0,1-.522-1.262v-9.3a1.719,1.719,0,0,1,.522-1.262,1.719,1.719,0,0,1,1.262-.522H86.086a1.719,1.719,0,0,1,1.262.522,1.719,1.719,0,0,1,.522,1.262v9.3a1.719,1.719,0,0,1-.522,1.262,1.719,1.719,0,0,1-1.262.522Zm6.216-5.607a.884.884,0,0,0,.239-.034.932.932,0,0,0,.234-.1l5.4-3.409a.7.7,0,0,0,.252-.259.717.717,0,0,0,.09-.356.7.7,0,0,0-.364-.637.674.674,0,0,0-.749.022l-5.1,3.223-5.1-3.223a.675.675,0,0,0-.747-.017.694.694,0,0,0-.366.632.744.744,0,0,0,.09.373.6.6,0,0,0,.252.242l5.4,3.409a.93.93,0,0,0,.234.1A.884.884,0,0,0,79.87-800.874Z" transform="translate(-71.87 808.131)" fill="#fff"/></svg>