<svg xmlns="http://www.w3.org/2000/svg" xmlns:xlink="http://www.w3.org/1999/xlink" viewBox="0 0 890 770"><defs><style>.a{fill:none;}.b{clip-path:url(#a);}.c,.f{fill:#2790c0;}.d{fill:#46a0c9;}.e{fill:#fffcf5;}.f{isolation:isolate;opacity:0.29;}.g{fill:#122333;}.h{fill:#2483b0;}.i{fill:#376c8c;}.j{fill:#f10513;}.k{fill:#da6a38;}.l{fill:#c59d71;}.m{fill:#6c5b45;}.n{fill:#5c513a;}.o{fill:#e3b561;}.p{fill:#54403c;}.q{fill:#583d29;}.r{fill:#cb9d6b;}.s{fill:#d9be6a;}.t{fill:#b88464;}.u{fill:#df9a5e;}</style><clipPath id="a"><rect class="a" width="890" height="770"/></clipPath></defs><g class="b"><rect class="c" width="890" height="770"/><g class="b"><rect class="c" width="890" height="770"/><path class="d" d="M326.22-100C-6-100.26-93.67-52.64-93.67,6.35-93.67,40.61-131.62,164-52,184c57.37,14.38-17.09-71.18,227.55-74s397.93,102.51,471,18.09S658.41-99.74,326.22-100Z"/><path class="e" d="M462,370,902.47,48.1v662Z"/><path class="f" d="M897.12,50.87S574.16,273,614.93,398.07s282.19,85.76,282.19,85.76v166.1L323.6,474Z"/><path class="g" d="M892.42,668.23,293,233.31-26.77,410.57V861.94H907Z"/><path class="g" d="M747.4,565.69H901.34V688.36Z"/><path class="g" d="M295.52,306.59-12,482.77V230.44h308v.32l602.69,442.9v56.23Z"/><path class="c" d="M295.74,295.54V254.87L892.2,688v39.67Z"/><path class="g" d="M-42.43,360.21l94.43-38V185.59H-42.43Z"/><path class="h" d="M296,255-11.81,426.39v41.42L296,295.63Z"/><path class="g" d="M472.48-61.29C188.46-61.46-73-31.84-73,7.39c0,22.79-32.44,104.86,35.6,118.13,49.05,9.57,28.82-58,240.24-58.59s305.55,44.67,413.75,9.26S756.49-61.12,472.48-61.29Z"/><circle class="i" cx="364" cy="801" r="113"/><circle class="e" cx="344" cy="688" r="48"/><circle class="e" cx="32.5" cy="688.5" r="144.5"/><circle class="j" cx="71" cy="297" r="7"/><circle class="c" cx="196.5" cy="710.5" r="144.5"/><circle class="e" cx="921.5" cy="758.5" r="96.5"/><circle class="d" cx="136.5" cy="566.5" r="35.5"/><circle class="e" cx="0.5" cy="565.5" r="65.5"/><circle class="j" cx="445.5" cy="614.5" r="18.5"/><path class="g" d="M116.81,255s15.39-11.42,22-37-4-31.4-22-152.37h5.67s4.26,37.56,10.23,36.52,19-42.68,19-42.68l2.6,6.16S140.5,95,141.19,120.31s15.89,46.43,15.89,46.43,5.65,14.25,13.42.22S234.38,49.89,234.38,49.89l4.71,9.57s-31,63-23.21,60.32a79,79,0,0,0,35.3-23.71c12.83-15.08,16-36.61,16-36.61L270,65.63s-7.88,20.81-2.82,22.15,29.48-21,29.48-21l5.07,2.07S214.68,130.72,207.35,142s-43.48,113-43.48,113Z"/><path class="d" d="M156.64,230.44s-1.39-25.12,3.09-30.55,1.27,23.3,12.88,8.83S206.16,142,206.16,142l-33.55,88.45Z"/></g></g><rect class="k" width="890" height="770"/><path class="l" d="M483.08,411.17c127.45-77.24,157.38-99.35,162.58-86.26,16.86,42.46,2.79,36.17-5.2,41S486.25,416.68,482.81,417,483.08,411.17,483.08,411.17Z"/><path class="m" d="M361.29,476.44c-5.08,7.12-26.59,44.57-29.51,46s-38.69.27-41.23.91-6.48,6.73-6.6,13,6-9.91,8-9.78,28.83-1,28.83-1-20.45,9.53-21.47,11.43-4.82,3.94-4.44,12.45,3.81-9.78,6.6-10.16,27.69-13.06,31.62-13.33c4.71-.33,25.15-.89,26.55,0s4.31-2.54,1-2.54-22,.12-23.75,0,26.82-43.93,28.83-46.1C367.05,475.78,361.29,476.44,361.29,476.44Z"/><path class="n" d="M430.46,457.21c-4,7.37-45.83,81.79-48.44,83.46s-36.74,4.88-39.08,5.79-5.35,7.17-4.73,13.1,4.49-10.13,6.43-10.25,27.29-4.41,27.29-4.41-18.3,11.5-19,13.43-4.12,4.32-2.74,12.36,2.46-9.75,5.07-10.45,24.76-15.72,28.46-16.45c4.43-.88,23.79-3.85,25.23-3.17s3.8-2.93.66-2.54-20.87,2.75-22.57,2.84,46.13-81.21,47.78-83.51C435.86,455.89,430.46,457.21,430.46,457.21Z"/><path class="o" d="M435.14,463.54a22.74,22.74,0,0,0-11.86,4.17c-5.21,3.53-11.6,10.34-18.5,11.51-15.14,2.57-50.32,0-50.32,0-183.6-24-134.66-351.32,24.63-268.64,0,0,11.17,8.07,8.77,18.28-2.54,10.87-11.17,42.63-4.95,66.26Z"/><path class="p" d="M379,212.81c20.86-7.93,24.63-8.35,26.67-7.86s-16.06,18.79-18.64,20.31c-1.3.76-4.38.58-4.38.58C379.11,225.84,379,212.81,379,212.81Z"/><ellipse class="q" cx="347.71" cy="231.62" rx="11.2" ry="10.64"/><path class="r" d="M495.56,399.23c27.05-124.61,21-146.1,34.58-143.48,37.91,7.32,32.24,10.52,30.6,19.53s-31.4,74.9-31.4,74.9-27.67,50.54-29.68,53.27S495.56,399.23,495.56,399.23Z"/><path class="s" d="M569.9,270.08c13.58-22.85,20.09-23.1,44.87-7.64,11.08,6.91,33.49,22,13.31,41.41C603,328.07,502,412.75,493.84,414.25S569.9,270.08,569.9,270.08Z"/><path class="t" d="M237.47,311.75c-3.51,12.31,24.58,48.78,44.07,43.57s60.38-45.82,80.88-53,4.53,7,4.53,7-34.89,21.3-42.82,71.14S303,450.19,295.59,450.7s-8.49-.65-8.49-.65c-13.32-10.31-28.75-31.7-35.12-47.25C230.11,349.43,237.79,312.67,237.47,311.75Z"/><path class="u" d="M541.59,489.45c-57.72,0-106.87-23.72-106.87-23.72-192.32-110.59-60.87-182.32-36-165.18,0,0,47.72,17.44,84.3,68.87C538.73,447.77,541.59,489.45,541.59,489.45Z"/></svg>